<?xml version="1.0" encoding="utf-8"?>
<!-- Generator: Adobe Illustrator 22.0.1, SVG Export Plug-In . SVG Version: 6.00 Build 0)  -->
<svg version="1.1" id="Layer_1" xmlns="http://www.w3.org/2000/svg" xmlns:xlink="http://www.w3.org/1999/xlink" x="0px" y="0px"
	 viewBox="0 0 106 106" style="enable-background:new 0 0 106 106;" xml:space="preserve">
<style type="text/css">
	.st0{fill:#212121;}
	.st1{fill:#02E8B0;}
	.st2{fill:#00E9BE;}
</style>
<g id="Layer_1_2_">
	<g>
		<path class="st0" d="M73,105H33C15.4,105,1,90.6,1,73V33C1,15.4,15.4,1,33,1h40c17.6,0,32,14.4,32,32v40C105,90.6,90.6,105,73,105
			z"/>
		<path class="st1" d="M50.6,13.1c2.6-1.1,4.4,1.3,6,2.9c2.9,2.4,5.6,5,8.1,7.7c1.5,1.6,0.9,4.6-1.1,5.5c-1.5,0.8-3.4,0.2-4.6-1
			c-3.1-3-6.1-6.1-9.3-9C47.8,17.6,48.2,14.1,50.6,13.1z"/>
		<path class="st1" d="M78.9,21.7c1.8-0.9,4.6-0.2,5,1.9c0.8,1.8-0.5,3.7-1.8,4.9c-2.9,2.8-5.7,5.8-8.5,8.7c-1,1.2-2.8,1.5-4.3,0.9
			c-2.1-0.9-2.6-4-1.1-5.6C72,29,75.1,25,78.9,21.7z"/>
		<path class="st1" d="M22.8,22.3c1.8-1.1,4.1-0.4,5.5,1.1c3,3.1,6.2,6.1,9.3,9.1c2,1.9,0.6,5.9-2.2,5.9c-2.4,0.4-3.6-2-5.2-3.3
			c-2.8-2.3-5.3-4.9-7.9-7.5C20.7,26.2,21.2,23.5,22.8,22.3z"/>
		<path class="st1" d="M24.8,40.5c3.1-1.2,6.1,2.7,4.1,5.3c-2.3,2.9-5.2,5.3-7.7,8.1c-1.5,1.5-2.8,3.8-5.2,3.5
			c-2.9-0.1-4.3-4.1-2.2-6C17.5,47.9,20.5,43.4,24.8,40.5z"/>
		<path class="st2" d="M87.8,49c2.1-1.4,5.3,0.2,5.3,2.7c0.3,2.4-2.1,3.6-3.3,5.3c-2.3,2.8-4.8,5.3-7.4,7.8
			c-1.9,1.8-5.5,0.5-5.8-2.1c-0.5-2.7,2.1-4.4,3.7-6.1C82.8,54.3,85.1,51.4,87.8,49z"/>
		<path class="st1" d="M33.2,67.9c2-1.2,5.2,0.2,5.2,2.7c0.4,2.4-2,3.7-3.3,5.3c-2.3,2.8-4.9,5.3-7.4,7.8c-1.7,1.7-5.3,0.9-5.7-1.5
			c-0.8-2.3,1.2-4.3,2.7-5.7C27.6,73.7,30.1,70.6,33.2,67.9z"/>
		<path class="st1" d="M69.6,67.9c1.1-0.4,2.6-0.4,3.5,0.4c3.5,3.4,7.3,6.5,10.6,10.1c1,1.1,1.1,2.8,0.5,4.1c-1,2.3-4.3,2.3-5.9,0.7
			c-3.2-3-6.4-6.2-9.6-9.3C66.7,72.3,67.2,68.7,69.6,67.9z"/>
		<path class="st1" d="M42.3,76.9c1.7-0.9,3.7,0,4.9,1.2c3,3,6.1,6.1,9.3,9c2.1,2,0.7,6-2.3,6.1c-2.4,0.3-3.6-2.1-5.2-3.4
			c-2.8-2.3-5.3-4.8-7.8-7.4C39.6,80.8,40.2,77.7,42.3,76.9z"/>
		<circle class="st1" cx="33.3" cy="16.3" r="3.5"/>
		<circle class="st1" cx="43.5" cy="25.8" r="3.5"/>
		<circle class="st1" cx="16.3" cy="34.4" r="3.5"/>
		<circle class="st1" cx="71.6" cy="16.3" r="3.5"/>
		<circle class="st1" cx="89.7" cy="33.5" r="3.5"/>
		<circle class="st1" cx="80.1" cy="43.5" r="3.5"/>
		<circle class="st1" cx="89.7" cy="71.7" r="3.5"/>
		<circle class="st1" cx="62.5" cy="80.2" r="3.5"/>
		<circle class="st1" cx="72.5" cy="89.7" r="3.5"/>
		<circle class="st1" cx="34.3" cy="89.7" r="3.5"/>
		<circle class="st1" cx="25.8" cy="62.4" r="3.5"/>
		<circle class="st1" cx="16.3" cy="72.5" r="3.5"/>
	</g>
</g>
</svg>
