<?xml version="1.0" encoding="utf-8"?>
<!-- Generator: Adobe Illustrator 22.0.1, SVG Export Plug-In . SVG Version: 6.00 Build 0)  -->
<svg version="1.1" id="Layer_1" xmlns="http://www.w3.org/2000/svg" xmlns:xlink="http://www.w3.org/1999/xlink" x="0px" y="0px"
	 viewBox="0 0 276 106" style="enable-background:new 0 0 276 106;" xml:space="preserve">
<style type="text/css">
	.st0{fill:#212121;}
	.st1{fill:#02E8B0;}
	.st2{fill:#00E9BE;}
</style>
<g id="Layer_1_1_">
	<g>
		<g>
			<path class="st0" d="M125.4,78.5h-7.2V44.6h7.2v2.7c2.4-3.1,5.3-3.4,7-3.4c4,0,6.5,1.7,7.9,3.2c2,2,3.3,5.1,3.3,8.7
				c0,3.9-1.3,6.8-3.6,9c-2.2,2.2-4.6,3-7.6,3c-4.4,0-6.4-2.3-7.1-3.3v14H125.4z M126.6,51.7c-1.2,1.2-1.7,2.8-1.7,4.1
				c0,1.4,0.6,2.9,1.6,4c1,1,2.5,1.7,4.1,1.7c1.3,0,2.8-0.6,3.9-1.6c1.2-1.1,1.7-2.8,1.7-4.3c0-1.7-0.7-3.1-1.7-4
				c-1-1-2.5-1.6-3.9-1.6C128.5,50,127.3,51,126.6,51.7z"/>
			<path class="st0" d="M165.3,44.6h7.2V67h-7.2v-2.7c-2,3-4.8,3.5-6.6,3.5c-3.2,0-5.9-0.8-8.4-3.4c-2.4-2.5-3.3-5.4-3.3-8.4
				c0-3.8,1.4-7,3.5-9.1c2-2,4.7-3.1,7.8-3.1c1.9,0,5,0.5,7,3.3V44.6z M156.1,51.7c-0.8,0.8-1.7,2.1-1.7,4c0,2,0.9,3.3,1.5,4
				c1,1,2.5,1.7,4.3,1.7c1.4,0,2.8-0.6,3.8-1.6c1-0.9,1.7-2.3,1.7-4.2c0-1.6-0.6-3.1-1.7-4.1s-2.7-1.6-4-1.6
				C158.6,50,157.1,50.7,156.1,51.7z"/>
			<path class="st0" d="M178.2,44.6h7.2v3.5c0.6-1.3,1.7-2.4,2.8-3.1c1.2-0.8,2.5-1,3.9-1c0.9,0,1.6,0.1,2.4,0.3l-0.4,6.8
				c-1-0.5-2-0.8-3.3-0.8c-1.6,0-2.7,0.6-3.6,1.5c-1.6,1.7-1.7,4.1-1.7,6v9.1h-7.2L178.2,44.6L178.2,44.6z"/>
			<path class="st0" d="M206.5,50.4V67h-7.2V50.4h-2.5v-5.8h2.5v-7.3h7.2v7.2h4.4v5.8L206.5,50.4L206.5,50.4z"/>
			<path class="st0" d="M218.2,30.8c2.4,0,4.2,1.8,4.2,4.2s-1.8,4.2-4.2,4.2c-2.4,0-4.2-1.8-4.2-4.2C214,32.7,215.8,30.8,218.2,30.8
				z M221.8,44.6V67h-7.2V44.6H221.8z"/>
			<path class="st0" d="M244.8,51.7c-1.7-1.4-3.6-1.7-4.7-1.7c-2.3,0-3.6,1.1-4.1,1.6c-1,1-1.7,2.4-1.7,4.2c0,1.7,0.6,3.1,1.5,4
				c1.1,1.2,2.8,1.8,4.4,1.8c1.3,0,2.9-0.3,4.6-1.7v6.5c-1.9,1-3.7,1.3-5.7,1.3c-3.8,0-6.6-1.3-8.7-3.3c-1.7-1.7-3.5-4.4-3.5-8.5
				c0-3.8,1.6-6.8,3.7-8.8c2.5-2.4,5.5-3.2,8.5-3.2c2,0,3.8,0.3,5.7,1.3L244.8,51.7L244.8,51.7z"/>
			<path class="st0" d="M257,30.4V67h-7.2V30.4H257z"/>
		</g>
		<path class="st0" d="M72.5,105h-40c-17.6,0-32-14.4-32-32V33c0-17.6,14.4-32,32-32h40c17.6,0,32,14.4,32,32v40
			C104.5,90.6,90.1,105,72.5,105z"/>
		<ellipse transform="matrix(0.8371 -0.547 0.547 0.8371 15.0597 155.8057)" class="st1" cx="269.2" cy="52.6" rx="6.3" ry="6.3"/>
		<path class="st1" d="M50.1,13.1c2.6-1.1,4.4,1.3,6,2.9c2.9,2.4,5.6,5,8.1,7.7c1.5,1.6,0.9,4.6-1.1,5.5c-1.5,0.8-3.4,0.2-4.6-1
			c-3.1-3-6.1-6.1-9.3-9C47.3,17.6,47.7,14.1,50.1,13.1z"/>
		<path class="st1" d="M78.4,21.7c1.8-0.9,4.6-0.2,5,1.9c0.8,1.8-0.5,3.7-1.8,4.9c-2.9,2.8-5.7,5.8-8.5,8.7c-1,1.2-2.8,1.5-4.3,0.9
			c-2.1-0.9-2.6-4-1.1-5.6C71.5,29,74.6,25,78.4,21.7z"/>
		<path class="st1" d="M22.3,22.3c1.8-1.1,4.1-0.4,5.5,1.1c3,3.1,6.2,6.1,9.3,9.1c2,1.9,0.6,5.9-2.2,5.9c-2.4,0.4-3.6-2-5.2-3.3
			c-2.8-2.3-5.3-4.9-7.9-7.5C20.2,26.2,20.7,23.5,22.3,22.3z"/>
		<path class="st1" d="M24.3,40.5c3.1-1.2,6.1,2.7,4.1,5.3c-2.3,2.9-5.2,5.3-7.7,8.1c-1.5,1.5-2.8,3.8-5.2,3.5
			c-2.9-0.1-4.3-4.1-2.2-6C17,47.9,20,43.4,24.3,40.5z"/>
		<path class="st2" d="M87.3,49c2.1-1.4,5.3,0.2,5.3,2.7c0.3,2.4-2.1,3.6-3.3,5.3c-2.3,2.8-4.8,5.3-7.4,7.8
			c-1.9,1.8-5.5,0.5-5.8-2.1c-0.5-2.7,2.1-4.4,3.7-6.1C82.3,54.3,84.6,51.4,87.3,49z"/>
		<path class="st1" d="M32.7,67.9c2-1.2,5.2,0.2,5.2,2.7c0.4,2.4-2,3.7-3.3,5.3c-2.3,2.8-4.9,5.3-7.4,7.8c-1.7,1.7-5.3,0.9-5.7-1.5
			c-0.8-2.3,1.2-4.3,2.7-5.7C27.1,73.7,29.6,70.6,32.7,67.9z"/>
		<path class="st1" d="M69.1,67.9c1.1-0.4,2.6-0.4,3.5,0.4c3.5,3.4,7.3,6.5,10.6,10.1c1,1.1,1.1,2.8,0.5,4.1c-1,2.3-4.3,2.3-5.9,0.7
			c-3.2-3-6.4-6.2-9.6-9.3C66.2,72.3,66.7,68.7,69.1,67.9z"/>
		<path class="st1" d="M41.8,76.9c1.7-0.9,3.7,0,4.9,1.2c3,3,6.1,6.1,9.3,9c2.1,2,0.7,6-2.3,6.1c-2.4,0.3-3.6-2.1-5.2-3.4
			c-2.8-2.3-5.3-4.8-7.8-7.4C39.1,80.8,39.7,77.7,41.8,76.9z"/>
		<circle class="st1" cx="32.8" cy="16.3" r="3.5"/>
		<circle class="st1" cx="43" cy="25.8" r="3.5"/>
		<circle class="st1" cx="15.8" cy="34.4" r="3.5"/>
		<circle class="st1" cx="71.1" cy="16.3" r="3.5"/>
		<circle class="st1" cx="89.2" cy="33.5" r="3.5"/>
		<circle class="st1" cx="79.6" cy="43.5" r="3.5"/>
		<circle class="st1" cx="89.2" cy="71.7" r="3.5"/>
		<circle class="st1" cx="62" cy="80.2" r="3.5"/>
		<circle class="st1" cx="72" cy="89.7" r="3.5"/>
		<circle class="st1" cx="33.8" cy="89.7" r="3.5"/>
		<circle class="st1" cx="25.3" cy="62.4" r="3.5"/>
		<circle class="st1" cx="15.8" cy="72.5" r="3.5"/>
	</g>
</g>
</svg>
