<?xml version="1.0" encoding="utf-8"?>
<!-- Generator: Adobe Illustrator 22.0.1, SVG Export Plug-In . SVG Version: 6.00 Build 0)  -->
<svg version="1.1" id="Layer_1" xmlns="http://www.w3.org/2000/svg" xmlns:xlink="http://www.w3.org/1999/xlink" x="0px" y="0px"
	 viewBox="0 0 525.9 213.7" style="enable-background:new 0 0 525.9 213.7;" xml:space="preserve">
<style type="text/css">
	.st0{fill:#212121;}
	.st1{fill:#02E8B0;}
</style>
<g>
	<g>
		<path class="st0" d="M261.4,134.1h-7.2v-33.9h7.2v2.7c2.4-3.1,5.3-3.4,7-3.4c4,0,6.5,1.7,7.9,3.2c2,2,3.3,5.1,3.3,8.7
			c0,3.9-1.3,6.8-3.6,9c-2.2,2.2-4.6,3-7.6,3c-4.4,0-6.4-2.3-7.1-3.3V134.1z M262.6,107.3c-1.2,1.2-1.7,2.8-1.7,4.1
			c0,1.4,0.6,2.9,1.6,4c1,1,2.5,1.7,4.1,1.7c1.3,0,2.8-0.6,3.9-1.6c1.2-1.1,1.7-2.8,1.7-4.3c0-1.7-0.7-3.1-1.7-4
			c-1-1-2.5-1.6-3.9-1.6C264.5,105.7,263.3,106.6,262.6,107.3z"/>
		<path class="st0" d="M301.3,100.2h7.2v22.4h-7.2v-2.7c-2,3-4.8,3.5-6.6,3.5c-3.2,0-5.9-0.8-8.4-3.4c-2.4-2.5-3.3-5.4-3.3-8.4
			c0-3.8,1.4-7,3.5-9.1c2-2,4.7-3.1,7.8-3.1c1.9,0,5,0.5,7,3.3V100.2z M292.1,107.3c-0.8,0.8-1.7,2.1-1.7,4c0,2,0.9,3.3,1.5,4
			c1,1,2.5,1.7,4.3,1.7c1.4,0,2.8-0.6,3.8-1.6c1-0.9,1.7-2.3,1.7-4.2c0-1.6-0.6-3.1-1.7-4.1c-1.1-1-2.7-1.6-4-1.6
			C294.6,105.7,293.1,106.4,292.1,107.3z"/>
		<path class="st0" d="M314.2,100.2h7.2v3.5c0.6-1.3,1.7-2.4,2.8-3.1c1.2-0.8,2.5-1,3.9-1c0.9,0,1.6,0.1,2.4,0.3l-0.4,6.8
			c-1-0.5-2-0.8-3.3-0.8c-1.6,0-2.7,0.6-3.6,1.5c-1.6,1.7-1.7,4.1-1.7,6v9.1h-7.2V100.2z"/>
		<path class="st0" d="M342.5,106.1v16.6h-7.2v-16.6h-2.5v-5.8h2.5V93h7.2v7.2h4.4v5.8L342.5,106.1L342.5,106.1z"/>
		<path class="st0" d="M354.2,86.4c2.4,0,4.2,1.8,4.2,4.2c0,2.4-1.8,4.2-4.2,4.2c-2.4,0-4.2-1.8-4.2-4.2
			C350,88.3,351.8,86.4,354.2,86.4z M357.8,100.2v22.4h-7.2v-22.4H357.8z"/>
		<path class="st0" d="M380.8,107.3c-1.7-1.4-3.6-1.7-4.7-1.7c-2.3,0-3.6,1.1-4.1,1.6c-1,1-1.7,2.4-1.7,4.2c0,1.7,0.6,3.1,1.5,4
			c1.1,1.2,2.8,1.8,4.4,1.8c1.3,0,2.9-0.3,4.6-1.7v6.5c-1.9,1-3.7,1.3-5.7,1.3c-3.8,0-6.6-1.3-8.7-3.3c-1.7-1.7-3.5-4.4-3.5-8.5
			c0-3.8,1.6-6.8,3.7-8.8c2.5-2.4,5.5-3.2,8.5-3.2c2,0,3.8,0.3,5.7,1.3V107.3L380.8,107.3z"/>
		<path class="st0" d="M393,86v36.6h-7.2V86H393z"/>
	</g>
	<ellipse transform="matrix(0.8371 -0.547 0.547 0.8371 6.7887 239.1718)" class="st1" cx="405.1" cy="108.2" rx="6.3" ry="6.3"/>
</g>
<image style="overflow:visible;" width="800" height="800" xlink:href="logo.png"  transform="matrix(0.1301 0 0 0.1301 136.4393 56.1441)">
</image>
</svg>
